<?xml version="1.0" encoding="UTF-8"?>
<svg xmlns="http://www.w3.org/2000/svg" xmlns:xlink="http://www.w3.org/1999/xlink" width="125px" height="45px" viewBox="0 0 126 45" version="1.1">
<defs>
<filter id="alpha" filterUnits="objectBoundingBox" x="0%" y="0%" width="100%" height="100%">
  <feColorMatrix type="matrix" in="SourceGraphic" values="0 0 0 0 1 0 0 0 0 1 0 0 0 0 1 0 0 0 1 0"/>
</filter>
<mask id="mask0">
  <g filter="url(#alpha)">
<rect x="0" y="0" width="126" height="45" style="fill:rgb(0%,0%,0%);fill-opacity:0.921569;stroke:none;"/>
  </g>
</mask>
<clipPath id="clip1">
  <rect x="0" y="0" width="126" height="45"/>
</clipPath>
<g id="surface5" clip-path="url(#clip1)">
<path style=" stroke:none;fill-rule:evenodd;fill:rgb(99.607843%,100%,99.607843%);fill-opacity:1;" d="M 10.332031 1.769531 C 13.691406 1.34375 16.292969 2.523438 18.144531 5.308594 C 21.519531 1.140625 25.300781 0.71875 29.484375 4.046875 C 28.40625 4.742188 27.230469 5.25 25.957031 5.5625 C 28.679688 6.421875 30.863281 8.023438 32.507812 10.363281 C 30.171875 10.785156 27.820312 11.035156 25.453125 11.125 C 26.617188 12.496094 27.289062 14.097656 27.46875 15.925781 C 27.492188 16.6875 27.15625 17.191406 26.460938 17.445312 C 25.375 16.609375 24.367188 15.683594 23.4375 14.664062 C 22.453125 14.160156 21.445312 13.992188 20.410156 14.15625 C 22.722656 20.59375 23.730469 27.25 23.4375 34.128906 C 27.890625 34.96875 31.5 37.160156 34.273438 40.703125 C 34.519531 41.355469 34.601562 42.03125 34.523438 42.726562 C 23.765625 42.734375 13.015625 42.734375 2.269531 42.726562 C 1.859375 41.484375 2.109375 40.304688 3.023438 39.183594 C 7.132812 35.566406 11.921875 33.542969 17.386719 33.117188 C 18.269531 26.640625 17.933594 20.238281 16.378906 13.90625 C 13.707031 14.148438 11.523438 15.328125 9.828125 17.445312 C 9.035156 15.136719 9.371094 13.027344 10.835938 11.125 C 8.464844 11.035156 6.113281 10.785156 3.78125 10.363281 C 5.316406 8.160156 7.332031 6.558594 9.828125 5.5625 C 9.058594 5.050781 8.21875 4.800781 7.308594 4.804688 C 7.234375 4.269531 7.316406 3.765625 7.558594 3.285156 C 8.503906 2.726562 9.429688 2.21875 10.332031 1.769531 Z M 10.332031 1.769531 "/>
</g>
<mask id="mask1">
  <g filter="url(#alpha)">
<rect x="0" y="0" width="126" height="45" style="fill:rgb(0%,0%,0%);fill-opacity:0.929412;stroke:none;"/>
  </g>
</mask>
<clipPath id="clip2">
  <rect x="0" y="0" width="126" height="45"/>
</clipPath>
<g id="surface8" clip-path="url(#clip2)">
<path style=" stroke:none;fill-rule:evenodd;fill:rgb(99.607843%,100%,99.607843%);fill-opacity:1;" d="M 116.675781 10.871094 C 117.894531 10.765625 119.070312 10.933594 120.203125 11.375 C 120.707031 16.757812 120.875 22.152344 120.707031 27.554688 C 123.246094 27.753906 124.167969 29.101562 123.480469 31.601562 C 122.882812 32.476562 122.042969 32.984375 120.960938 33.117188 C 118.5625 33.191406 116.882812 32.179688 115.921875 30.085938 C 115.582031 24.015625 115.582031 17.949219 115.921875 11.882812 C 116.28125 11.605469 116.535156 11.269531 116.675781 10.871094 Z M 116.675781 10.871094 "/>
</g>
<mask id="mask2">
  <g filter="url(#alpha)">
<rect x="0" y="0" width="126" height="45" style="fill:rgb(0%,0%,0%);fill-opacity:0.905882;stroke:none;"/>
  </g>
</mask>
<clipPath id="clip3">
  <rect x="0" y="0" width="126" height="45"/>
</clipPath>
<g id="surface11" clip-path="url(#clip3)">
<path style=" stroke:none;fill-rule:evenodd;fill:rgb(99.607843%,100%,99.607843%);fill-opacity:1;" d="M 38.554688 11.882812 C 44.269531 11.796875 49.984375 11.882812 55.691406 12.136719 C 57.414062 13.308594 57.582031 14.65625 56.195312 16.179688 C 54.019531 16.433594 51.835938 16.515625 49.644531 16.433594 C 49.726562 21.660156 49.644531 26.882812 49.390625 32.105469 C 47.820312 33.226562 46.308594 33.226562 44.855469 32.105469 C 44.605469 26.882812 44.519531 21.660156 44.605469 16.433594 C 42.226562 16.597656 39.875 16.429688 37.546875 15.925781 C 36.78125 14.277344 37.117188 12.929688 38.554688 11.882812 Z M 38.554688 11.882812 "/>
</g>
<mask id="mask3">
  <g filter="url(#alpha)">
<rect x="0" y="0" width="126" height="45" style="fill:rgb(0%,0%,0%);fill-opacity:0.890196;stroke:none;"/>
  </g>
</mask>
<clipPath id="clip4">
  <rect x="0" y="0" width="126" height="45"/>
</clipPath>
<g id="surface14" clip-path="url(#clip4)">
<path style=" stroke:none;fill-rule:evenodd;fill:rgb(99.607843%,100%,99.607843%);fill-opacity:1;" d="M 62.242188 17.445312 C 66.125 17.585938 67.132812 19.355469 65.269531 22.753906 C 63.625 22.859375 62.03125 23.113281 60.480469 23.511719 C 60.3125 26.207031 60.144531 28.90625 59.976562 31.601562 C 58.519531 32.699219 56.921875 32.867188 55.1875 32.105469 C 54.617188 27.917969 54.53125 23.703125 54.9375 19.464844 C 55.125 19.003906 55.375 18.582031 55.691406 18.203125 C 57.289062 17.707031 58.71875 17.960938 59.976562 18.960938 C 60.808594 18.507812 61.566406 18 62.242188 17.445312 Z M 62.242188 17.445312 "/>
</g>
<mask id="mask4">
  <g filter="url(#alpha)">
<rect x="0" y="0" width="126" height="45" style="fill:rgb(0%,0%,0%);fill-opacity:0.898039;stroke:none;"/>
  </g>
</mask>
<clipPath id="clip5">
  <rect x="0" y="0" width="126" height="45"/>
</clipPath>
<g id="surface17" clip-path="url(#clip5)">
<path style=" stroke:none;fill-rule:evenodd;fill:rgb(99.607843%,100%,99.607843%);fill-opacity:1;" d="M 84.421875 17.445312 C 85.421875 17.382812 86.257812 17.722656 86.941406 18.453125 C 88.097656 20.878906 89.359375 23.238281 90.71875 25.535156 C 92.125 22.792969 93.722656 20.183594 95.507812 17.695312 C 97.574219 17.484375 98.917969 18.410156 99.539062 20.476562 C 97.25 24.480469 94.898438 28.441406 92.484375 32.359375 C 90.847656 33.441406 89.417969 33.1875 88.199219 31.601562 C 86.480469 28.316406 84.632812 25.113281 82.65625 21.996094 C 81.984375 19.917969 82.570312 18.402344 84.421875 17.445312 Z M 84.421875 17.445312 "/>
</g>
<mask id="mask5">
  <g filter="url(#alpha)">
<rect x="0" y="0" width="126" height="45" style="fill:rgb(0%,0%,0%);fill-opacity:0.901961;stroke:none;"/>
  </g>
</mask>
<clipPath id="clip6">
  <rect x="0" y="0" width="126" height="45"/>
</clipPath>
<g id="surface20" clip-path="url(#clip6)">
<path style=" stroke:none;fill-rule:evenodd;fill:rgb(99.607843%,100%,99.607843%);fill-opacity:1;" d="M 105.085938 17.445312 C 111.226562 16.78125 114.164062 19.480469 113.902344 25.535156 C 113.484375 25.953125 113.0625 26.375 112.644531 26.796875 C 110.125 26.964844 107.605469 27.136719 105.085938 27.304688 C 107.105469 28.894531 109.203125 28.976562 111.382812 27.554688 C 113.699219 29.015625 113.953125 30.613281 112.140625 32.359375 C 103.222656 34.859375 99.109375 31.570312 99.792969 22.5 C 100.851562 20 102.617188 18.316406 105.085938 17.445312 Z M 106.09375 22.5 C 107.339844 22.273438 108.347656 22.609375 109.117188 23.511719 C 107.800781 24.09375 106.457031 24.179688 105.085938 23.765625 C 105.527344 23.40625 105.863281 22.984375 106.09375 22.5 Z M 106.09375 22.5 "/>
</g>
<mask id="mask6">
  <g filter="url(#alpha)">
<rect x="0" y="0" width="126" height="45" style="fill:rgb(0%,0%,0%);fill-opacity:0.921569;stroke:none;"/>
  </g>
</mask>
<clipPath id="clip7">
  <rect x="0" y="0" width="126" height="45"/>
</clipPath>
<g id="surface23" clip-path="url(#clip7)">
<path style=" stroke:none;fill-rule:evenodd;fill:rgb(99.607843%,100%,99.607843%);fill-opacity:1;" d="M 70.8125 17.949219 C 72.707031 17.734375 74.46875 18.070312 76.105469 18.960938 C 77.785156 17.613281 79.464844 17.613281 81.144531 18.960938 C 81.5625 23.351562 81.480469 27.734375 80.890625 32.105469 C 79.160156 32.90625 77.5625 32.734375 76.105469 31.601562 C 71.605469 33.648438 68.414062 32.300781 66.527344 27.554688 C 65.777344 23.335938 67.203125 20.132812 70.8125 17.949219 Z M 72.828125 23.003906 C 75.769531 23.425781 76.441406 24.859375 74.84375 27.304688 C 72.324219 27.640625 71.402344 26.542969 72.070312 24.015625 C 72.433594 23.742188 72.683594 23.40625 72.828125 23.003906 Z M 72.828125 23.003906 "/>
</g>
</defs>
<g id="surface1">
<use xlink:href="#surface5" mask="url(#mask0)"/>
<use xlink:href="#surface8" mask="url(#mask1)"/>
<use xlink:href="#surface11" mask="url(#mask2)"/>
<use xlink:href="#surface14" mask="url(#mask3)"/>
<use xlink:href="#surface17" mask="url(#mask4)"/>
<use xlink:href="#surface20" mask="url(#mask5)"/>
<use xlink:href="#surface23" mask="url(#mask6)"/>
</g>
</svg>
