<?xml version="1.0" standalone="no"?>
<!DOCTYPE svg PUBLIC "-//W3C//DTD SVG 20010904//EN"
 "http://www.w3.org/TR/2001/REC-SVG-20010904/DTD/svg10.dtd">
<svg version="1.0" xmlns="http://www.w3.org/2000/svg"
 width="250.000000pt" height="89.000000pt" viewBox="0 0 250.000000 89.000000"
 preserveAspectRatio="xMidYMid meet">

<g transform="translate(0.000000,89.000000) scale(0.100000,-0.100000)"
fill="#000000" stroke="none">
<path d="M175 823 l-30 -16 30 -13 c17 -7 36 -13 43 -14 20 0 3 -20 -18 -20
-20 0 -103 -59 -104 -74 -1 -5 29 -8 67 -7 37 1 67 1 67 -1 0 -2 -9 -21 -20
-43 -19 -37 -27 -85 -14 -85 3 0 22 13 42 29 20 16 51 31 67 33 28 3 31 0 44
-47 15 -55 20 -250 8 -305 -7 -34 -9 -36 -68 -47 -78 -15 -157 -55 -204 -103
-65 -67 -66 -67 283 -66 171 1 314 4 318 8 22 23 -91 115 -177 143 l-46 16 -6
117 c-3 69 -15 151 -27 200 -12 46 -20 86 -17 88 10 11 56 -9 86 -37 18 -16
34 -29 37 -29 12 0 1 60 -16 93 l-21 39 71 -4 c38 -1 70 0 70 3 0 13 -58 59
-95 75 l-40 17 39 16 c35 15 37 18 22 31 -10 7 -41 15 -70 18 -50 4 -56 2 -95
-33 -33 -30 -42 -34 -47 -21 -19 48 -121 71 -179 39z"/>
<path d="M2317 653 c-4 -3 -7 -86 -7 -184 0 -207 4 -217 82 -226 44 -5 47 -4
53 20 10 39 2 62 -23 65 -22 3 -22 6 -22 152 0 82 -3 155 -6 164 -6 16 -64 23
-77 9z"/>
<path d="M754 626 c-15 -40 -1 -51 71 -56 l70 -5 3 -157 3 -158 24 -6 c52 -13
54 -7 57 163 l3 158 70 5 70 5 0 30 0 30 -183 3 c-153 2 -183 0 -188 -12z"/>
<path d="M1122 520 c-22 -9 -23 -13 -20 -136 3 -139 10 -153 61 -140 27 6 27
8 27 90 0 96 10 112 64 103 41 -7 56 7 56 49 0 44 -52 61 -94 29 -16 -12 -21
-12 -40 0 -23 17 -23 17 -54 5z"/>
<path d="M1426 519 c-55 -15 -96 -72 -96 -134 0 -93 91 -166 162 -131 17 9 34
13 37 8 10 -14 43 -23 62 -17 17 6 19 18 19 140 0 112 -2 134 -16 139 -25 10
-42 7 -59 -10 -10 -11 -20 -13 -28 -6 -19 15 -50 19 -81 11z m92 -132 c2 -19
-4 -30 -22 -43 -24 -15 -28 -15 -52 0 -33 22 -30 65 6 83 32 16 64 -3 68 -40z"/>
<path d="M1662 514 c-12 -8 -22 -20 -22 -25 0 -5 30 -62 67 -125 50 -85 74
-116 92 -121 30 -8 40 4 116 137 60 105 62 119 23 143 -26 17 -44 1 -87 -77
-23 -42 -43 -76 -46 -76 -2 0 -23 36 -46 80 -43 84 -56 93 -97 64z"/>
<path d="M2061 512 c-55 -27 -76 -65 -75 -128 1 -42 8 -62 29 -90 34 -44 59
-54 139 -54 50 0 67 4 81 20 15 17 16 24 6 46 -10 22 -15 25 -39 18 -40 -12
-89 -9 -106 5 -27 22 -8 31 68 31 43 0 77 5 84 12 7 7 12 30 12 51 0 31 -7 46
-34 73 -29 29 -41 34 -82 34 -27 0 -64 -8 -83 -18z m107 -89 c3 -21 -1 -23
-42 -23 -50 0 -54 4 -29 32 23 26 67 20 71 -9z"/>
</g>
</svg>
